<svg width="16" height="16" viewBox="0 0 16 16" fill="none" xmlns="http://www.w3.org/2000/svg">
<path d="M7.65002 10.4104C6.1264 10.4104 4.88965 9.17365 4.88965 7.65002C4.88965 6.1264 6.1264 4.88965 7.65002 4.88965C9.17365 4.88965 10.4104 6.1264 10.4104 7.65002C10.4104 9.17365 9.17365 10.4104 7.65002 10.4104ZM7.65002 5.8459C6.65552 5.8459 5.8459 6.65552 5.8459 7.65002C5.8459 8.64452 6.65552 9.45415 7.65002 9.45415C8.64452 9.45415 9.45415 8.64452 9.45415 7.65002C9.45415 6.65552 8.64452 5.8459 7.65002 5.8459Z" fill="black"/>
<path d="M7.65017 13.4002C5.25317 13.4002 2.99005 11.9977 1.43455 9.56241C0.758797 8.51053 0.758797 6.79566 1.43455 5.73741C2.99642 3.30216 5.25955 1.89966 7.65017 1.89966C10.0408 1.89966 12.3039 3.30216 13.8594 5.73741C14.5352 6.78928 14.5352 8.50416 13.8594 9.56241C12.3039 11.9977 10.0408 13.4002 7.65017 13.4002ZM7.65017 2.85591C5.59105 2.85591 3.62117 4.09266 2.24417 6.25378C1.76605 6.99966 1.76605 8.30016 2.24417 9.04603C3.62117 11.2072 5.59105 12.4439 7.65017 12.4439C9.7093 12.4439 11.6792 11.2072 13.0562 9.04603C13.5343 8.30016 13.5343 6.99966 13.0562 6.25378C11.6792 4.09266 9.7093 2.85591 7.65017 2.85591Z" fill="black"/>
</svg>
